<mxfile host="app.diagrams.net" agent="Mozilla/5.0 (Windows NT 10.0; Win64; x64) AppleWebKit/537.36 (KHTML, like Gecko) Chrome/128.0.0.0 Safari/537.36 OPR/114.0.0.0 (Edition ms_store)" version="24.8.1">
  <diagram id="R2lEEEUBdFMjLlhIrx00" name="Page-1">
    <mxGraphModel dx="2002" dy="1782" grid="1" gridSize="10" guides="1" tooltips="1" connect="1" arrows="1" fold="1" page="1" pageScale="1" pageWidth="850" pageHeight="1100" math="0" shadow="0" extFonts="Permanent Marker^https://fonts.googleapis.com/css?family=Permanent+Marker">
      <root>
        <mxCell id="0" />
        <mxCell id="1" parent="0" />
        <mxCell id="Nn_GcHT7Je9zV0mcnBFL-10" style="edgeStyle=orthogonalEdgeStyle;rounded=0;orthogonalLoop=1;jettySize=auto;html=1;entryX=0;entryY=1;entryDx=0;entryDy=0;" edge="1" parent="1" source="CsL8E8aFtRLFVdAylu72-8" target="CsL8E8aFtRLFVdAylu72-37">
          <mxGeometry relative="1" as="geometry">
            <Array as="points">
              <mxPoint x="140" y="510" />
              <mxPoint x="358" y="510" />
            </Array>
          </mxGeometry>
        </mxCell>
        <mxCell id="CsL8E8aFtRLFVdAylu72-8" value="Cliente" style="whiteSpace=wrap;html=1;align=center;fillColor=#dae8fc;strokeColor=#6c8ebf;" parent="1" vertex="1">
          <mxGeometry x="40" y="440" width="100" height="40" as="geometry" />
        </mxCell>
        <mxCell id="CsL8E8aFtRLFVdAylu72-24" style="edgeStyle=orthogonalEdgeStyle;rounded=0;orthogonalLoop=1;jettySize=auto;html=1;entryX=0.5;entryY=0;entryDx=0;entryDy=0;" parent="1" source="CsL8E8aFtRLFVdAylu72-9" target="CsL8E8aFtRLFVdAylu72-3" edge="1">
          <mxGeometry relative="1" as="geometry" />
        </mxCell>
        <mxCell id="CsL8E8aFtRLFVdAylu72-9" value="Coche" style="whiteSpace=wrap;html=1;align=center;fillColor=#dae8fc;strokeColor=#6c8ebf;" parent="1" vertex="1">
          <mxGeometry x="330" y="440" width="100" height="40" as="geometry" />
        </mxCell>
        <mxCell id="CsL8E8aFtRLFVdAylu72-10" value="Productos" style="whiteSpace=wrap;html=1;align=center;fillColor=#dae8fc;strokeColor=#6c8ebf;" parent="1" vertex="1">
          <mxGeometry x="40" y="45" width="100" height="40" as="geometry" />
        </mxCell>
        <mxCell id="CsL8E8aFtRLFVdAylu72-12" value="Servicio" style="whiteSpace=wrap;html=1;align=center;fillColor=#dae8fc;strokeColor=#6c8ebf;" parent="1" vertex="1">
          <mxGeometry x="-120" y="300" width="100" height="40" as="geometry" />
        </mxCell>
        <mxCell id="CsL8E8aFtRLFVdAylu72-13" value="Proveedor" style="whiteSpace=wrap;html=1;align=center;fillColor=#dae8fc;strokeColor=#6c8ebf;" parent="1" vertex="1">
          <mxGeometry x="705" y="440" width="100" height="40" as="geometry" />
        </mxCell>
        <mxCell id="CsL8E8aFtRLFVdAylu72-14" value="Taller" style="whiteSpace=wrap;html=1;align=center;fillColor=#dae8fc;strokeColor=#6c8ebf;" parent="1" vertex="1">
          <mxGeometry x="880" y="640" width="100" height="40" as="geometry" />
        </mxCell>
        <mxCell id="CsL8E8aFtRLFVdAylu72-15" value="Overcame&lt;div&gt;(Tienda)&lt;/div&gt;" style="whiteSpace=wrap;html=1;align=center;fillColor=#dae8fc;strokeColor=#6c8ebf;" parent="1" vertex="1">
          <mxGeometry x="330" y="280" width="100" height="40" as="geometry" />
        </mxCell>
        <mxCell id="CsL8E8aFtRLFVdAylu72-16" value="Empleado" style="whiteSpace=wrap;html=1;align=center;fillColor=#dae8fc;strokeColor=#6c8ebf;" parent="1" vertex="1">
          <mxGeometry x="40" y="280" width="100" height="40" as="geometry" />
        </mxCell>
        <mxCell id="CsL8E8aFtRLFVdAylu72-19" value="Seguro" style="whiteSpace=wrap;html=1;align=center;fillColor=#dae8fc;strokeColor=#6c8ebf;" parent="1" vertex="1">
          <mxGeometry x="-120" y="440" width="100" height="40" as="geometry" />
        </mxCell>
        <mxCell id="CsL8E8aFtRLFVdAylu72-22" value="Coche&lt;div&gt;Segunda Mano&lt;/div&gt;" style="whiteSpace=wrap;html=1;align=center;fillColor=#dae8fc;strokeColor=#6c8ebf;" parent="1" vertex="1">
          <mxGeometry x="400" y="600" width="100" height="40" as="geometry" />
        </mxCell>
        <mxCell id="CsL8E8aFtRLFVdAylu72-23" value="Coche Alquiler" style="whiteSpace=wrap;html=1;align=center;fillColor=#dae8fc;strokeColor=#6c8ebf;" parent="1" vertex="1">
          <mxGeometry x="260" y="600" width="100" height="40" as="geometry" />
        </mxCell>
        <mxCell id="CsL8E8aFtRLFVdAylu72-25" style="edgeStyle=orthogonalEdgeStyle;rounded=0;orthogonalLoop=1;jettySize=auto;html=1;entryX=0.5;entryY=0;entryDx=0;entryDy=0;" parent="1" source="CsL8E8aFtRLFVdAylu72-1" target="CsL8E8aFtRLFVdAylu72-22" edge="1">
          <mxGeometry relative="1" as="geometry">
            <Array as="points">
              <mxPoint x="450" y="567" />
            </Array>
          </mxGeometry>
        </mxCell>
        <mxCell id="CsL8E8aFtRLFVdAylu72-26" style="edgeStyle=orthogonalEdgeStyle;rounded=0;orthogonalLoop=1;jettySize=auto;html=1;entryX=0.5;entryY=0;entryDx=0;entryDy=0;" parent="1" source="CsL8E8aFtRLFVdAylu72-1" target="CsL8E8aFtRLFVdAylu72-23" edge="1">
          <mxGeometry relative="1" as="geometry">
            <Array as="points">
              <mxPoint x="310" y="567" />
            </Array>
          </mxGeometry>
        </mxCell>
        <mxCell id="CsL8E8aFtRLFVdAylu72-75" style="rounded=0;orthogonalLoop=1;jettySize=auto;html=1;entryX=0.5;entryY=0;entryDx=0;entryDy=0;exitX=0.5;exitY=1;exitDx=0;exitDy=0;" parent="1" source="CsL8E8aFtRLFVdAylu72-32" target="CsL8E8aFtRLFVdAylu72-16" edge="1">
          <mxGeometry relative="1" as="geometry">
            <Array as="points">
              <mxPoint x="90" y="210" />
              <mxPoint x="100" y="210" />
              <mxPoint x="100" y="230" />
              <mxPoint x="90" y="230" />
              <mxPoint x="90" y="250" />
            </Array>
          </mxGeometry>
        </mxCell>
        <mxCell id="CsL8E8aFtRLFVdAylu72-83" style="edgeStyle=orthogonalEdgeStyle;rounded=0;orthogonalLoop=1;jettySize=auto;html=1;entryX=0.5;entryY=1;entryDx=0;entryDy=0;" parent="1" source="CsL8E8aFtRLFVdAylu72-32" target="CsL8E8aFtRLFVdAylu72-10" edge="1">
          <mxGeometry relative="1" as="geometry" />
        </mxCell>
        <mxCell id="CsL8E8aFtRLFVdAylu72-32" value="Organiza" style="shape=rhombus;perimeter=rhombusPerimeter;whiteSpace=wrap;html=1;align=center;fillColor=#ffe6cc;strokeColor=#d79b00;" parent="1" vertex="1">
          <mxGeometry x="45" y="150" width="90" height="40" as="geometry" />
        </mxCell>
        <mxCell id="CsL8E8aFtRLFVdAylu72-72" style="edgeStyle=orthogonalEdgeStyle;rounded=0;orthogonalLoop=1;jettySize=auto;html=1;entryX=0.5;entryY=1;entryDx=0;entryDy=0;" parent="1" source="CsL8E8aFtRLFVdAylu72-33" target="CsL8E8aFtRLFVdAylu72-14" edge="1">
          <mxGeometry relative="1" as="geometry" />
        </mxCell>
        <mxCell id="Nn_GcHT7Je9zV0mcnBFL-47" style="edgeStyle=orthogonalEdgeStyle;rounded=0;orthogonalLoop=1;jettySize=auto;html=1;entryX=1;entryY=0.75;entryDx=0;entryDy=0;" edge="1" parent="1" source="CsL8E8aFtRLFVdAylu72-33" target="CsL8E8aFtRLFVdAylu72-9">
          <mxGeometry relative="1" as="geometry">
            <Array as="points">
              <mxPoint x="730" y="750" />
              <mxPoint x="730" y="480" />
              <mxPoint x="430" y="480" />
            </Array>
          </mxGeometry>
        </mxCell>
        <mxCell id="CsL8E8aFtRLFVdAylu72-33" value="Mantiene" style="shape=rhombus;perimeter=rhombusPerimeter;whiteSpace=wrap;html=1;align=center;fillColor=#ffe6cc;strokeColor=#d79b00;" parent="1" vertex="1">
          <mxGeometry x="885" y="730" width="90" height="40" as="geometry" />
        </mxCell>
        <mxCell id="CsL8E8aFtRLFVdAylu72-70" style="edgeStyle=orthogonalEdgeStyle;rounded=0;orthogonalLoop=1;jettySize=auto;html=1;entryX=0.5;entryY=1;entryDx=0;entryDy=0;endArrow=none;endFill=0;" parent="1" source="CsL8E8aFtRLFVdAylu72-34" target="CsL8E8aFtRLFVdAylu72-12" edge="1">
          <mxGeometry relative="1" as="geometry" />
        </mxCell>
        <mxCell id="CsL8E8aFtRLFVdAylu72-71" style="edgeStyle=orthogonalEdgeStyle;rounded=0;orthogonalLoop=1;jettySize=auto;html=1;entryX=0.5;entryY=0;entryDx=0;entryDy=0;endArrow=none;endFill=0;" parent="1" source="CsL8E8aFtRLFVdAylu72-34" target="CsL8E8aFtRLFVdAylu72-19" edge="1">
          <mxGeometry relative="1" as="geometry" />
        </mxCell>
        <mxCell id="CsL8E8aFtRLFVdAylu72-34" value="Contiene" style="shape=rhombus;perimeter=rhombusPerimeter;whiteSpace=wrap;html=1;align=center;fillColor=#ffe6cc;strokeColor=#d79b00;" parent="1" vertex="1">
          <mxGeometry x="-115" y="365" width="90" height="40" as="geometry" />
        </mxCell>
        <mxCell id="CsL8E8aFtRLFVdAylu72-64" style="edgeStyle=orthogonalEdgeStyle;rounded=0;orthogonalLoop=1;jettySize=auto;html=1;entryX=0.75;entryY=0;entryDx=0;entryDy=0;" parent="1" source="CsL8E8aFtRLFVdAylu72-36" target="CsL8E8aFtRLFVdAylu72-15" edge="1">
          <mxGeometry relative="1" as="geometry">
            <Array as="points">
              <mxPoint x="930" y="230" />
              <mxPoint x="405" y="230" />
            </Array>
          </mxGeometry>
        </mxCell>
        <mxCell id="CsL8E8aFtRLFVdAylu72-74" style="edgeStyle=orthogonalEdgeStyle;rounded=0;orthogonalLoop=1;jettySize=auto;html=1;entryX=0.5;entryY=0;entryDx=0;entryDy=0;endArrow=none;endFill=0;" parent="1" source="CsL8E8aFtRLFVdAylu72-36" target="CsL8E8aFtRLFVdAylu72-14" edge="1">
          <mxGeometry relative="1" as="geometry" />
        </mxCell>
        <mxCell id="CsL8E8aFtRLFVdAylu72-36" value="Tiene un" style="shape=rhombus;perimeter=rhombusPerimeter;whiteSpace=wrap;html=1;align=center;fillColor=#ffe6cc;strokeColor=#d79b00;" parent="1" vertex="1">
          <mxGeometry x="885" y="550" width="90" height="40" as="geometry" />
        </mxCell>
        <mxCell id="CsL8E8aFtRLFVdAylu72-58" style="edgeStyle=orthogonalEdgeStyle;rounded=0;orthogonalLoop=1;jettySize=auto;html=1;entryX=0.5;entryY=1;entryDx=0;entryDy=0;" parent="1" source="CsL8E8aFtRLFVdAylu72-37" target="CsL8E8aFtRLFVdAylu72-15" edge="1">
          <mxGeometry relative="1" as="geometry" />
        </mxCell>
        <mxCell id="CsL8E8aFtRLFVdAylu72-59" style="edgeStyle=orthogonalEdgeStyle;rounded=0;orthogonalLoop=1;jettySize=auto;html=1;entryX=0.5;entryY=0;entryDx=0;entryDy=0;" parent="1" source="CsL8E8aFtRLFVdAylu72-37" target="CsL8E8aFtRLFVdAylu72-9" edge="1">
          <mxGeometry relative="1" as="geometry" />
        </mxCell>
        <mxCell id="CsL8E8aFtRLFVdAylu72-37" value="Vende" style="shape=rhombus;perimeter=rhombusPerimeter;whiteSpace=wrap;html=1;align=center;fillColor=#ffe6cc;strokeColor=#d79b00;" parent="1" vertex="1">
          <mxGeometry x="335" y="360" width="90" height="40" as="geometry" />
        </mxCell>
        <mxCell id="CsL8E8aFtRLFVdAylu72-56" style="edgeStyle=orthogonalEdgeStyle;rounded=0;orthogonalLoop=1;jettySize=auto;html=1;entryX=0;entryY=0.5;entryDx=0;entryDy=0;" parent="1" source="CsL8E8aFtRLFVdAylu72-38" target="CsL8E8aFtRLFVdAylu72-13" edge="1">
          <mxGeometry relative="1" as="geometry" />
        </mxCell>
        <mxCell id="CsL8E8aFtRLFVdAylu72-57" style="edgeStyle=orthogonalEdgeStyle;rounded=0;orthogonalLoop=1;jettySize=auto;html=1;entryX=1;entryY=0.5;entryDx=0;entryDy=0;" parent="1" source="CsL8E8aFtRLFVdAylu72-38" target="CsL8E8aFtRLFVdAylu72-9" edge="1">
          <mxGeometry relative="1" as="geometry" />
        </mxCell>
        <mxCell id="CsL8E8aFtRLFVdAylu72-84" style="edgeStyle=orthogonalEdgeStyle;rounded=0;orthogonalLoop=1;jettySize=auto;html=1;entryX=0;entryY=0.5;entryDx=0;entryDy=0;" parent="1" source="CsL8E8aFtRLFVdAylu72-38" target="CsL8E8aFtRLFVdAylu72-10" edge="1">
          <mxGeometry relative="1" as="geometry">
            <Array as="points">
              <mxPoint x="565" y="490" />
              <mxPoint x="710" y="490" />
              <mxPoint x="710" y="800" />
              <mxPoint x="-370" y="800" />
              <mxPoint x="-370" y="65" />
            </Array>
          </mxGeometry>
        </mxCell>
        <mxCell id="CsL8E8aFtRLFVdAylu72-38" value="Entrega" style="shape=rhombus;perimeter=rhombusPerimeter;whiteSpace=wrap;html=1;align=center;fillColor=#ffe6cc;strokeColor=#d79b00;" parent="1" vertex="1">
          <mxGeometry x="520" y="440" width="90" height="40" as="geometry" />
        </mxCell>
        <mxCell id="CsL8E8aFtRLFVdAylu72-54" style="edgeStyle=orthogonalEdgeStyle;rounded=0;orthogonalLoop=1;jettySize=auto;html=1;entryX=1;entryY=0.5;entryDx=0;entryDy=0;" parent="1" source="CsL8E8aFtRLFVdAylu72-39" target="CsL8E8aFtRLFVdAylu72-15" edge="1">
          <mxGeometry relative="1" as="geometry" />
        </mxCell>
        <mxCell id="CsL8E8aFtRLFVdAylu72-55" style="edgeStyle=orthogonalEdgeStyle;rounded=0;orthogonalLoop=1;jettySize=auto;html=1;entryX=0.5;entryY=0;entryDx=0;entryDy=0;" parent="1" source="CsL8E8aFtRLFVdAylu72-39" target="CsL8E8aFtRLFVdAylu72-13" edge="1">
          <mxGeometry relative="1" as="geometry" />
        </mxCell>
        <mxCell id="CsL8E8aFtRLFVdAylu72-39" value="Trabaja con" style="shape=rhombus;perimeter=rhombusPerimeter;whiteSpace=wrap;html=1;align=center;fillColor=#ffe6cc;strokeColor=#d79b00;" parent="1" vertex="1">
          <mxGeometry x="710" y="280" width="90" height="40" as="geometry" />
        </mxCell>
        <mxCell id="CsL8E8aFtRLFVdAylu72-52" style="edgeStyle=orthogonalEdgeStyle;rounded=0;orthogonalLoop=1;jettySize=auto;html=1;entryX=0;entryY=0.5;entryDx=0;entryDy=0;" parent="1" source="CsL8E8aFtRLFVdAylu72-40" target="CsL8E8aFtRLFVdAylu72-15" edge="1">
          <mxGeometry relative="1" as="geometry" />
        </mxCell>
        <mxCell id="CsL8E8aFtRLFVdAylu72-53" style="edgeStyle=orthogonalEdgeStyle;rounded=0;orthogonalLoop=1;jettySize=auto;html=1;entryX=1;entryY=0.5;entryDx=0;entryDy=0;endArrow=none;endFill=0;" parent="1" source="CsL8E8aFtRLFVdAylu72-40" target="CsL8E8aFtRLFVdAylu72-16" edge="1">
          <mxGeometry relative="1" as="geometry" />
        </mxCell>
        <mxCell id="CsL8E8aFtRLFVdAylu72-40" value="Contrata a" style="shape=rhombus;perimeter=rhombusPerimeter;whiteSpace=wrap;html=1;align=center;fillColor=#ffe6cc;strokeColor=#d79b00;" parent="1" vertex="1">
          <mxGeometry x="190" y="280" width="90" height="40" as="geometry" />
        </mxCell>
        <mxCell id="CsL8E8aFtRLFVdAylu72-49" style="edgeStyle=orthogonalEdgeStyle;rounded=0;orthogonalLoop=1;jettySize=auto;html=1;entryX=0.5;entryY=1;entryDx=0;entryDy=0;" parent="1" source="CsL8E8aFtRLFVdAylu72-41" target="CsL8E8aFtRLFVdAylu72-8" edge="1">
          <mxGeometry relative="1" as="geometry" />
        </mxCell>
        <mxCell id="Nn_GcHT7Je9zV0mcnBFL-28" style="edgeStyle=orthogonalEdgeStyle;rounded=0;orthogonalLoop=1;jettySize=auto;html=1;entryX=0.5;entryY=0;entryDx=0;entryDy=0;" edge="1" parent="1" source="CsL8E8aFtRLFVdAylu72-41" target="Nn_GcHT7Je9zV0mcnBFL-27">
          <mxGeometry relative="1" as="geometry" />
        </mxCell>
        <mxCell id="CsL8E8aFtRLFVdAylu72-41" value="Realiza" style="shape=rhombus;perimeter=rhombusPerimeter;whiteSpace=wrap;html=1;align=center;fillColor=#ffe6cc;strokeColor=#d79b00;" parent="1" vertex="1">
          <mxGeometry x="45" y="600" width="90" height="40" as="geometry" />
        </mxCell>
        <mxCell id="CsL8E8aFtRLFVdAylu72-46" style="edgeStyle=orthogonalEdgeStyle;rounded=0;orthogonalLoop=1;jettySize=auto;html=1;entryX=0.5;entryY=0;entryDx=0;entryDy=0;" parent="1" source="CsL8E8aFtRLFVdAylu72-42" target="CsL8E8aFtRLFVdAylu72-8" edge="1">
          <mxGeometry relative="1" as="geometry" />
        </mxCell>
        <mxCell id="CsL8E8aFtRLFVdAylu72-51" style="edgeStyle=orthogonalEdgeStyle;rounded=0;orthogonalLoop=1;jettySize=auto;html=1;entryX=0.5;entryY=1;entryDx=0;entryDy=0;endArrow=none;endFill=0;" parent="1" source="CsL8E8aFtRLFVdAylu72-42" target="CsL8E8aFtRLFVdAylu72-16" edge="1">
          <mxGeometry relative="1" as="geometry" />
        </mxCell>
        <mxCell id="CsL8E8aFtRLFVdAylu72-69" style="edgeStyle=orthogonalEdgeStyle;rounded=0;orthogonalLoop=1;jettySize=auto;html=1;entryX=1;entryY=0.5;entryDx=0;entryDy=0;" parent="1" source="CsL8E8aFtRLFVdAylu72-42" target="CsL8E8aFtRLFVdAylu72-12" edge="1">
          <mxGeometry relative="1" as="geometry" />
        </mxCell>
        <mxCell id="CsL8E8aFtRLFVdAylu72-42" value="Contrata un" style="shape=rhombus;perimeter=rhombusPerimeter;whiteSpace=wrap;html=1;align=center;fillColor=#ffe6cc;strokeColor=#d79b00;" parent="1" vertex="1">
          <mxGeometry x="45" y="360" width="90" height="40" as="geometry" />
        </mxCell>
        <mxCell id="CsL8E8aFtRLFVdAylu72-44" style="edgeStyle=orthogonalEdgeStyle;rounded=0;orthogonalLoop=1;jettySize=auto;html=1;entryX=1;entryY=0.5;entryDx=0;entryDy=0;" parent="1" source="CsL8E8aFtRLFVdAylu72-43" target="CsL8E8aFtRLFVdAylu72-8" edge="1">
          <mxGeometry relative="1" as="geometry" />
        </mxCell>
        <mxCell id="CsL8E8aFtRLFVdAylu72-90" style="edgeStyle=orthogonalEdgeStyle;rounded=0;orthogonalLoop=1;jettySize=auto;html=1;entryX=0.25;entryY=1;entryDx=0;entryDy=0;" parent="1" source="CsL8E8aFtRLFVdAylu72-43" target="CsL8E8aFtRLFVdAylu72-15" edge="1">
          <mxGeometry relative="1" as="geometry">
            <Array as="points">
              <mxPoint x="320" y="450" />
              <mxPoint x="320" y="350" />
              <mxPoint x="355" y="350" />
            </Array>
          </mxGeometry>
        </mxCell>
        <mxCell id="Nn_GcHT7Je9zV0mcnBFL-24" style="edgeStyle=orthogonalEdgeStyle;rounded=0;orthogonalLoop=1;jettySize=auto;html=1;" edge="1" parent="1" source="CsL8E8aFtRLFVdAylu72-43">
          <mxGeometry relative="1" as="geometry">
            <mxPoint x="140" y="70" as="targetPoint" />
            <Array as="points">
              <mxPoint x="300" y="460" />
              <mxPoint x="300" y="65" />
              <mxPoint x="140" y="65" />
            </Array>
          </mxGeometry>
        </mxCell>
        <mxCell id="CsL8E8aFtRLFVdAylu72-43" value="Compra en" style="shape=rhombus;perimeter=rhombusPerimeter;whiteSpace=wrap;html=1;align=center;fillColor=#ffe6cc;strokeColor=#d79b00;" parent="1" vertex="1">
          <mxGeometry x="190" y="440" width="90" height="40" as="geometry" />
        </mxCell>
        <mxCell id="CsL8E8aFtRLFVdAylu72-93" value="(1,1)" style="text;html=1;align=center;verticalAlign=middle;resizable=0;points=[];autosize=1;strokeColor=none;fillColor=none;" parent="1" vertex="1">
          <mxGeometry x="375" y="320" width="50" height="30" as="geometry" />
        </mxCell>
        <mxCell id="CsL8E8aFtRLFVdAylu72-94" value="(1,n)" style="text;html=1;align=center;verticalAlign=middle;resizable=0;points=[];autosize=1;strokeColor=none;fillColor=none;" parent="1" vertex="1">
          <mxGeometry x="375" y="410" width="50" height="30" as="geometry" />
        </mxCell>
        <mxCell id="CsL8E8aFtRLFVdAylu72-102" value="1:1:N" style="text;html=1;align=center;verticalAlign=middle;resizable=0;points=[];autosize=1;strokeColor=none;fillColor=none;" parent="1" vertex="1">
          <mxGeometry x="125" y="365" width="50" height="30" as="geometry" />
        </mxCell>
        <mxCell id="CsL8E8aFtRLFVdAylu72-103" value="(1,n)" style="text;html=1;align=center;verticalAlign=middle;resizable=0;points=[];autosize=1;strokeColor=none;fillColor=none;" parent="1" vertex="1">
          <mxGeometry x="85" y="410" width="50" height="30" as="geometry" />
        </mxCell>
        <mxCell id="CsL8E8aFtRLFVdAylu72-104" value="(1,n)" style="text;html=1;align=center;verticalAlign=middle;resizable=0;points=[];autosize=1;strokeColor=none;fillColor=none;" parent="1" vertex="1">
          <mxGeometry x="-30" y="290" width="50" height="30" as="geometry" />
        </mxCell>
        <mxCell id="CsL8E8aFtRLFVdAylu72-105" value="(1,1)" style="text;html=1;align=center;verticalAlign=middle;resizable=0;points=[];autosize=1;strokeColor=none;fillColor=none;" parent="1" vertex="1">
          <mxGeometry x="85" y="320" width="50" height="30" as="geometry" />
        </mxCell>
        <mxCell id="CsL8E8aFtRLFVdAylu72-106" value="(1,1)" style="text;html=1;align=center;verticalAlign=middle;resizable=0;points=[];autosize=1;strokeColor=none;fillColor=none;" parent="1" vertex="1">
          <mxGeometry x="90" y="480" width="50" height="30" as="geometry" />
        </mxCell>
        <mxCell id="CsL8E8aFtRLFVdAylu72-108" value="(0,1)" style="text;html=1;align=center;verticalAlign=middle;resizable=0;points=[];autosize=1;strokeColor=none;fillColor=none;" parent="1" vertex="1">
          <mxGeometry x="440" y="570" width="50" height="30" as="geometry" />
        </mxCell>
        <mxCell id="CsL8E8aFtRLFVdAylu72-109" value="(1,1)" style="text;html=1;align=center;verticalAlign=middle;resizable=0;points=[];autosize=1;strokeColor=none;fillColor=none;" parent="1" vertex="1">
          <mxGeometry x="135" y="270" width="50" height="30" as="geometry" />
        </mxCell>
        <mxCell id="CsL8E8aFtRLFVdAylu72-110" value="(1,n)" style="text;html=1;align=center;verticalAlign=middle;resizable=0;points=[];autosize=1;strokeColor=none;fillColor=none;" parent="1" vertex="1">
          <mxGeometry x="290" y="270" width="50" height="30" as="geometry" />
        </mxCell>
        <mxCell id="CsL8E8aFtRLFVdAylu72-111" value="1:N" style="text;html=1;align=center;verticalAlign=middle;resizable=0;points=[];autosize=1;strokeColor=none;fillColor=none;" parent="1" vertex="1">
          <mxGeometry x="215" y="260" width="40" height="30" as="geometry" />
        </mxCell>
        <mxCell id="CsL8E8aFtRLFVdAylu72-116" value="N:M" style="text;html=1;align=center;verticalAlign=middle;resizable=0;points=[];autosize=1;strokeColor=none;fillColor=none;" parent="1" vertex="1">
          <mxGeometry x="30" y="620" width="50" height="30" as="geometry" />
        </mxCell>
        <mxCell id="CsL8E8aFtRLFVdAylu72-117" value="N:M" style="text;html=1;align=center;verticalAlign=middle;resizable=0;points=[];autosize=1;strokeColor=none;fillColor=none;" parent="1" vertex="1">
          <mxGeometry x="730" y="260" width="50" height="30" as="geometry" />
        </mxCell>
        <mxCell id="CsL8E8aFtRLFVdAylu72-118" value="(1,n)" style="text;html=1;align=center;verticalAlign=middle;resizable=0;points=[];autosize=1;strokeColor=none;fillColor=none;" parent="1" vertex="1">
          <mxGeometry x="425" y="270" width="50" height="30" as="geometry" />
        </mxCell>
        <mxCell id="CsL8E8aFtRLFVdAylu72-119" value="(1,n)" style="text;html=1;align=center;verticalAlign=middle;resizable=0;points=[];autosize=1;strokeColor=none;fillColor=none;" parent="1" vertex="1">
          <mxGeometry x="750" y="410" width="50" height="30" as="geometry" />
        </mxCell>
        <mxCell id="CsL8E8aFtRLFVdAylu72-120" value="(1,n)" style="text;html=1;align=center;verticalAlign=middle;resizable=0;points=[];autosize=1;strokeColor=none;fillColor=none;" parent="1" vertex="1">
          <mxGeometry x="425" y="430" width="50" height="30" as="geometry" />
        </mxCell>
        <mxCell id="CsL8E8aFtRLFVdAylu72-121" value="(1,n)" style="text;html=1;align=center;verticalAlign=middle;resizable=0;points=[];autosize=1;strokeColor=none;fillColor=none;" parent="1" vertex="1">
          <mxGeometry x="660" y="430" width="50" height="30" as="geometry" />
        </mxCell>
        <mxCell id="CsL8E8aFtRLFVdAylu72-122" value="(1,n)" style="text;html=1;align=center;verticalAlign=middle;resizable=0;points=[];autosize=1;strokeColor=none;fillColor=none;" parent="1" vertex="1">
          <mxGeometry x="-10" y="40" width="50" height="30" as="geometry" />
        </mxCell>
        <mxCell id="CsL8E8aFtRLFVdAylu72-127" value="(1,1)" style="text;html=1;align=center;verticalAlign=middle;resizable=0;points=[];autosize=1;strokeColor=none;fillColor=none;" parent="1" vertex="1">
          <mxGeometry x="310" y="230" width="50" height="30" as="geometry" />
        </mxCell>
        <mxCell id="CsL8E8aFtRLFVdAylu72-129" value="N:M:P" style="text;html=1;align=center;verticalAlign=middle;resizable=0;points=[];autosize=1;strokeColor=none;fillColor=none;" parent="1" vertex="1">
          <mxGeometry x="535" y="410" width="60" height="30" as="geometry" />
        </mxCell>
        <mxCell id="CsL8E8aFtRLFVdAylu72-131" value="(1,n)" style="text;html=1;align=center;verticalAlign=middle;resizable=0;points=[];autosize=1;strokeColor=none;fillColor=none;" parent="1" vertex="1">
          <mxGeometry x="925" y="678" width="50" height="30" as="geometry" />
        </mxCell>
        <mxCell id="CsL8E8aFtRLFVdAylu72-133" value="N:M" style="text;html=1;align=center;verticalAlign=middle;resizable=0;points=[];autosize=1;strokeColor=none;fillColor=none;" parent="1" vertex="1">
          <mxGeometry x="905" y="770" width="50" height="30" as="geometry" />
        </mxCell>
        <mxCell id="CsL8E8aFtRLFVdAylu72-134" value="(1,1)" style="text;html=1;align=center;verticalAlign=middle;resizable=0;points=[];autosize=1;strokeColor=none;fillColor=none;" parent="1" vertex="1">
          <mxGeometry x="370" y="478" width="50" height="30" as="geometry" />
        </mxCell>
        <mxCell id="CsL8E8aFtRLFVdAylu72-135" value="1,n" style="text;html=1;align=center;verticalAlign=middle;resizable=0;points=[];autosize=1;strokeColor=none;fillColor=none;" parent="1" vertex="1">
          <mxGeometry x="85" y="250" width="40" height="30" as="geometry" />
        </mxCell>
        <mxCell id="CsL8E8aFtRLFVdAylu72-136" value="(1,n)" style="text;html=1;align=center;verticalAlign=middle;resizable=0;points=[];autosize=1;strokeColor=none;fillColor=none;" parent="1" vertex="1">
          <mxGeometry x="85" y="85" width="50" height="30" as="geometry" />
        </mxCell>
        <mxCell id="CsL8E8aFtRLFVdAylu72-137" value="N:M" style="text;html=1;align=center;verticalAlign=middle;resizable=0;points=[];autosize=1;strokeColor=none;fillColor=none;" parent="1" vertex="1">
          <mxGeometry x="125" y="155" width="50" height="30" as="geometry" />
        </mxCell>
        <mxCell id="CsL8E8aFtRLFVdAylu72-141" value="(1,1)" style="text;html=1;align=center;verticalAlign=middle;resizable=0;points=[];autosize=1;strokeColor=none;fillColor=none;" parent="1" vertex="1">
          <mxGeometry x="-110" y="410" width="50" height="30" as="geometry" />
        </mxCell>
        <mxCell id="CsL8E8aFtRLFVdAylu72-142" value="(1,1)" style="text;html=1;align=center;verticalAlign=middle;resizable=0;points=[];autosize=1;strokeColor=none;fillColor=none;" parent="1" vertex="1">
          <mxGeometry x="-110" y="335" width="50" height="30" as="geometry" />
        </mxCell>
        <mxCell id="CsL8E8aFtRLFVdAylu72-143" value="1:1" style="text;html=1;align=center;verticalAlign=middle;resizable=0;points=[];autosize=1;strokeColor=none;fillColor=none;" parent="1" vertex="1">
          <mxGeometry x="-150" y="370" width="40" height="30" as="geometry" />
        </mxCell>
        <mxCell id="CsL8E8aFtRLFVdAylu72-144" value="(1,1)" style="text;html=1;align=center;verticalAlign=middle;resizable=0;points=[];autosize=1;strokeColor=none;fillColor=none;" parent="1" vertex="1">
          <mxGeometry x="925" y="608" width="50" height="30" as="geometry" />
        </mxCell>
        <mxCell id="CsL8E8aFtRLFVdAylu72-145" value="(1,n)" style="text;html=1;align=center;verticalAlign=middle;resizable=0;points=[];autosize=1;strokeColor=none;fillColor=none;" parent="1" vertex="1">
          <mxGeometry x="400" y="230" width="50" height="30" as="geometry" />
        </mxCell>
        <mxCell id="CsL8E8aFtRLFVdAylu72-146" value="1:N" style="text;html=1;align=center;verticalAlign=middle;resizable=0;points=[];autosize=1;strokeColor=none;fillColor=none;" parent="1" vertex="1">
          <mxGeometry x="975" y="555" width="40" height="30" as="geometry" />
        </mxCell>
        <mxCell id="CsL8E8aFtRLFVdAylu72-147" value="(1,n)" style="text;html=1;align=center;verticalAlign=middle;resizable=0;points=[];autosize=1;strokeColor=none;fillColor=none;" parent="1" vertex="1">
          <mxGeometry x="135" y="430" width="50" height="30" as="geometry" />
        </mxCell>
        <mxCell id="CsL8E8aFtRLFVdAylu72-148" value="(1,n)" style="text;html=1;align=center;verticalAlign=middle;resizable=0;points=[];autosize=1;strokeColor=none;fillColor=none;" parent="1" vertex="1">
          <mxGeometry x="310" y="320" width="50" height="30" as="geometry" />
        </mxCell>
        <mxCell id="CsL8E8aFtRLFVdAylu72-149" value="(N:M:P)" style="text;html=1;align=center;verticalAlign=middle;resizable=0;points=[];autosize=1;strokeColor=none;fillColor=none;" parent="1" vertex="1">
          <mxGeometry x="205" y="478" width="60" height="30" as="geometry" />
        </mxCell>
        <mxCell id="JXQCX-pXFuUWfHpVdgid-14" style="rounded=0;orthogonalLoop=1;jettySize=auto;html=1;entryX=1;entryY=1;entryDx=0;entryDy=0;endArrow=none;endFill=0;fillColor=#d5e8d4;strokeColor=#82b366;" parent="1" source="JXQCX-pXFuUWfHpVdgid-2" target="CsL8E8aFtRLFVdAylu72-9" edge="1">
          <mxGeometry relative="1" as="geometry" />
        </mxCell>
        <mxCell id="JXQCX-pXFuUWfHpVdgid-2" value="Id-Coche" style="ellipse;whiteSpace=wrap;html=1;align=center;fontStyle=4;fillColor=#d5e8d4;strokeColor=#82b366;" parent="1" vertex="1">
          <mxGeometry x="570" y="500" width="60" height="20" as="geometry" />
        </mxCell>
        <mxCell id="JXQCX-pXFuUWfHpVdgid-15" style="rounded=0;orthogonalLoop=1;jettySize=auto;html=1;entryX=1;entryY=1;entryDx=0;entryDy=0;endArrow=none;endFill=0;fillColor=#d5e8d4;strokeColor=#82b366;" parent="1" source="JXQCX-pXFuUWfHpVdgid-9" target="CsL8E8aFtRLFVdAylu72-9" edge="1">
          <mxGeometry relative="1" as="geometry" />
        </mxCell>
        <mxCell id="JXQCX-pXFuUWfHpVdgid-9" value="Modelo" style="ellipse;whiteSpace=wrap;html=1;align=center;fillColor=#d5e8d4;strokeColor=#82b366;" parent="1" vertex="1">
          <mxGeometry x="570" y="520" width="50" height="20" as="geometry" />
        </mxCell>
        <mxCell id="JXQCX-pXFuUWfHpVdgid-16" style="rounded=0;orthogonalLoop=1;jettySize=auto;html=1;entryX=1;entryY=1;entryDx=0;entryDy=0;endArrow=none;endFill=0;fillColor=#d5e8d4;strokeColor=#82b366;" parent="1" source="JXQCX-pXFuUWfHpVdgid-10" target="CsL8E8aFtRLFVdAylu72-9" edge="1">
          <mxGeometry relative="1" as="geometry" />
        </mxCell>
        <mxCell id="JXQCX-pXFuUWfHpVdgid-10" value="Marca" style="ellipse;whiteSpace=wrap;html=1;align=center;fillColor=#d5e8d4;strokeColor=#82b366;" parent="1" vertex="1">
          <mxGeometry x="560" y="540" width="40" height="20" as="geometry" />
        </mxCell>
        <mxCell id="JXQCX-pXFuUWfHpVdgid-17" style="rounded=0;orthogonalLoop=1;jettySize=auto;html=1;entryX=1;entryY=1;entryDx=0;entryDy=0;endArrow=none;endFill=0;fillColor=#d5e8d4;strokeColor=#82b366;" parent="1" source="JXQCX-pXFuUWfHpVdgid-11" target="CsL8E8aFtRLFVdAylu72-9" edge="1">
          <mxGeometry relative="1" as="geometry" />
        </mxCell>
        <mxCell id="JXQCX-pXFuUWfHpVdgid-11" value="Año" style="ellipse;whiteSpace=wrap;html=1;align=center;fillColor=#d5e8d4;strokeColor=#82b366;" parent="1" vertex="1">
          <mxGeometry x="515" y="534.5" width="30" height="20" as="geometry" />
        </mxCell>
        <mxCell id="JXQCX-pXFuUWfHpVdgid-13" style="rounded=0;orthogonalLoop=1;jettySize=auto;html=1;entryX=1;entryY=1;entryDx=0;entryDy=0;endArrow=none;endFill=0;fillColor=#d5e8d4;strokeColor=#82b366;" parent="1" source="JXQCX-pXFuUWfHpVdgid-12" target="CsL8E8aFtRLFVdAylu72-9" edge="1">
          <mxGeometry relative="1" as="geometry" />
        </mxCell>
        <mxCell id="JXQCX-pXFuUWfHpVdgid-12" value="Color" style="ellipse;whiteSpace=wrap;html=1;align=center;fillColor=#d5e8d4;strokeColor=#82b366;" parent="1" vertex="1">
          <mxGeometry x="453.75" y="520" width="36.25" height="20" as="geometry" />
        </mxCell>
        <mxCell id="JXQCX-pXFuUWfHpVdgid-28" style="rounded=0;orthogonalLoop=1;jettySize=auto;html=1;entryX=0;entryY=1;entryDx=0;entryDy=0;endArrow=none;endFill=0;fillColor=#d5e8d4;strokeColor=#82b366;" parent="1" source="JXQCX-pXFuUWfHpVdgid-19" target="CsL8E8aFtRLFVdAylu72-8" edge="1">
          <mxGeometry relative="1" as="geometry" />
        </mxCell>
        <mxCell id="JXQCX-pXFuUWfHpVdgid-19" value="Id-Cliente" style="ellipse;whiteSpace=wrap;html=1;align=center;fontStyle=4;fillColor=#d5e8d4;strokeColor=#82b366;" parent="1" vertex="1">
          <mxGeometry x="-55" y="490" width="55" height="20" as="geometry" />
        </mxCell>
        <mxCell id="JXQCX-pXFuUWfHpVdgid-27" style="rounded=0;orthogonalLoop=1;jettySize=auto;html=1;entryX=0;entryY=1;entryDx=0;entryDy=0;endArrow=none;endFill=0;fillColor=#d5e8d4;strokeColor=#82b366;" parent="1" source="JXQCX-pXFuUWfHpVdgid-20" target="CsL8E8aFtRLFVdAylu72-8" edge="1">
          <mxGeometry relative="1" as="geometry" />
        </mxCell>
        <mxCell id="JXQCX-pXFuUWfHpVdgid-20" value="Nombre" style="ellipse;whiteSpace=wrap;html=1;align=center;fillColor=#d5e8d4;strokeColor=#82b366;" parent="1" vertex="1">
          <mxGeometry x="-42.5" y="510" width="50" height="20" as="geometry" />
        </mxCell>
        <mxCell id="JXQCX-pXFuUWfHpVdgid-26" style="rounded=0;orthogonalLoop=1;jettySize=auto;html=1;entryX=0;entryY=1;entryDx=0;entryDy=0;endArrow=none;endFill=0;fillColor=#d5e8d4;strokeColor=#82b366;" parent="1" source="JXQCX-pXFuUWfHpVdgid-21" target="CsL8E8aFtRLFVdAylu72-8" edge="1">
          <mxGeometry relative="1" as="geometry" />
        </mxCell>
        <mxCell id="JXQCX-pXFuUWfHpVdgid-21" value="DNI" style="ellipse;whiteSpace=wrap;html=1;align=center;fillColor=#d5e8d4;strokeColor=#82b366;" parent="1" vertex="1">
          <mxGeometry x="-17" y="530" width="32.5" height="20" as="geometry" />
        </mxCell>
        <mxCell id="JXQCX-pXFuUWfHpVdgid-24" style="rounded=0;orthogonalLoop=1;jettySize=auto;html=1;entryX=0;entryY=1;entryDx=0;entryDy=0;endArrow=none;endFill=0;fillColor=#d5e8d4;strokeColor=#82b366;" parent="1" source="JXQCX-pXFuUWfHpVdgid-22" target="CsL8E8aFtRLFVdAylu72-8" edge="1">
          <mxGeometry relative="1" as="geometry" />
        </mxCell>
        <mxCell id="JXQCX-pXFuUWfHpVdgid-22" value="Telefono" style="ellipse;whiteSpace=wrap;html=1;align=center;fillColor=#d5e8d4;strokeColor=#82b366;" parent="1" vertex="1">
          <mxGeometry x="20" y="570" width="60" height="15" as="geometry" />
        </mxCell>
        <mxCell id="JXQCX-pXFuUWfHpVdgid-25" style="rounded=0;orthogonalLoop=1;jettySize=auto;html=1;entryX=0;entryY=1;entryDx=0;entryDy=0;endArrow=none;endFill=0;fillColor=#d5e8d4;strokeColor=#82b366;" parent="1" source="JXQCX-pXFuUWfHpVdgid-23" target="CsL8E8aFtRLFVdAylu72-8" edge="1">
          <mxGeometry relative="1" as="geometry" />
        </mxCell>
        <mxCell id="JXQCX-pXFuUWfHpVdgid-23" value="Direccion" style="ellipse;whiteSpace=wrap;html=1;align=center;fillColor=#d5e8d4;strokeColor=#82b366;" parent="1" vertex="1">
          <mxGeometry x="-11.25" y="550" width="56.25" height="20" as="geometry" />
        </mxCell>
        <mxCell id="JXQCX-pXFuUWfHpVdgid-36" style="rounded=0;orthogonalLoop=1;jettySize=auto;html=1;entryX=0;entryY=0;entryDx=0;entryDy=0;endArrow=none;endFill=0;fillColor=#d5e8d4;strokeColor=#82b366;" parent="1" source="JXQCX-pXFuUWfHpVdgid-30" target="CsL8E8aFtRLFVdAylu72-16" edge="1">
          <mxGeometry relative="1" as="geometry" />
        </mxCell>
        <mxCell id="JXQCX-pXFuUWfHpVdgid-30" value="Nombre" style="ellipse;whiteSpace=wrap;html=1;align=center;fillColor=#d5e8d4;strokeColor=#82b366;" parent="1" vertex="1">
          <mxGeometry x="-95.62" y="270" width="51.25" height="20" as="geometry" />
        </mxCell>
        <mxCell id="JXQCX-pXFuUWfHpVdgid-35" style="rounded=0;orthogonalLoop=1;jettySize=auto;html=1;entryX=0;entryY=0;entryDx=0;entryDy=0;endArrow=none;endFill=0;fillColor=#d5e8d4;strokeColor=#82b366;" parent="1" source="JXQCX-pXFuUWfHpVdgid-31" target="CsL8E8aFtRLFVdAylu72-16" edge="1">
          <mxGeometry relative="1" as="geometry" />
        </mxCell>
        <mxCell id="JXQCX-pXFuUWfHpVdgid-31" value="DNI" style="ellipse;whiteSpace=wrap;html=1;align=center;fillColor=#d5e8d4;strokeColor=#82b366;" parent="1" vertex="1">
          <mxGeometry x="-107.5" y="250" width="47.5" height="20" as="geometry" />
        </mxCell>
        <mxCell id="JXQCX-pXFuUWfHpVdgid-34" style="rounded=0;orthogonalLoop=1;jettySize=auto;html=1;entryX=0;entryY=0;entryDx=0;entryDy=0;endArrow=none;endFill=0;fillColor=#d5e8d4;strokeColor=#82b366;" parent="1" source="JXQCX-pXFuUWfHpVdgid-32" target="CsL8E8aFtRLFVdAylu72-16" edge="1">
          <mxGeometry relative="1" as="geometry" />
        </mxCell>
        <mxCell id="JXQCX-pXFuUWfHpVdgid-32" value="Direccion" style="ellipse;whiteSpace=wrap;html=1;align=center;fillColor=#d5e8d4;strokeColor=#82b366;" parent="1" vertex="1">
          <mxGeometry x="-72" y="234.5" width="62" height="21" as="geometry" />
        </mxCell>
        <mxCell id="JXQCX-pXFuUWfHpVdgid-33" style="rounded=0;orthogonalLoop=1;jettySize=auto;html=1;entryX=0;entryY=0;entryDx=0;entryDy=0;endArrow=none;endFill=0;fillColor=#d5e8d4;strokeColor=#82b366;" parent="1" source="JXQCX-pXFuUWfHpVdgid-29" target="CsL8E8aFtRLFVdAylu72-16" edge="1">
          <mxGeometry relative="1" as="geometry" />
        </mxCell>
        <mxCell id="JXQCX-pXFuUWfHpVdgid-29" value="Id-Empleado" style="ellipse;whiteSpace=wrap;html=1;align=center;fontStyle=4;fillColor=#d5e8d4;strokeColor=#82b366;" parent="1" vertex="1">
          <mxGeometry x="-16.25" y="230" width="75" height="19" as="geometry" />
        </mxCell>
        <mxCell id="JXQCX-pXFuUWfHpVdgid-42" style="rounded=0;orthogonalLoop=1;jettySize=auto;html=1;entryX=1;entryY=1;entryDx=0;entryDy=0;endArrow=none;endFill=0;fillColor=#d5e8d4;strokeColor=#82b366;" parent="1" source="JXQCX-pXFuUWfHpVdgid-37" target="CsL8E8aFtRLFVdAylu72-15" edge="1">
          <mxGeometry relative="1" as="geometry" />
        </mxCell>
        <mxCell id="JXQCX-pXFuUWfHpVdgid-37" value="Id-Tienda" style="ellipse;whiteSpace=wrap;html=1;align=center;fontStyle=4;fillColor=#d5e8d4;strokeColor=#82b366;" parent="1" vertex="1">
          <mxGeometry x="510" y="306.5" width="65" height="20" as="geometry" />
        </mxCell>
        <mxCell id="JXQCX-pXFuUWfHpVdgid-43" style="rounded=0;orthogonalLoop=1;jettySize=auto;html=1;entryX=1;entryY=1;entryDx=0;entryDy=0;endArrow=none;endFill=0;fillColor=#d5e8d4;strokeColor=#82b366;" parent="1" source="JXQCX-pXFuUWfHpVdgid-38" target="CsL8E8aFtRLFVdAylu72-15" edge="1">
          <mxGeometry relative="1" as="geometry" />
        </mxCell>
        <mxCell id="JXQCX-pXFuUWfHpVdgid-38" value="Direccion" style="ellipse;whiteSpace=wrap;html=1;align=center;fillColor=#d5e8d4;strokeColor=#82b366;" parent="1" vertex="1">
          <mxGeometry x="530" y="326.5" width="50" height="20" as="geometry" />
        </mxCell>
        <mxCell id="JXQCX-pXFuUWfHpVdgid-44" style="rounded=0;orthogonalLoop=1;jettySize=auto;html=1;entryX=1;entryY=1;entryDx=0;entryDy=0;endArrow=none;endFill=0;fillColor=#d5e8d4;strokeColor=#82b366;" parent="1" source="JXQCX-pXFuUWfHpVdgid-39" target="CsL8E8aFtRLFVdAylu72-15" edge="1">
          <mxGeometry relative="1" as="geometry" />
        </mxCell>
        <mxCell id="JXQCX-pXFuUWfHpVdgid-39" value="Email" style="ellipse;whiteSpace=wrap;html=1;align=center;fillColor=#d5e8d4;strokeColor=#82b366;" parent="1" vertex="1">
          <mxGeometry x="545" y="347.5" width="40" height="15" as="geometry" />
        </mxCell>
        <mxCell id="JXQCX-pXFuUWfHpVdgid-48" style="rounded=0;orthogonalLoop=1;jettySize=auto;html=1;entryX=1;entryY=1;entryDx=0;entryDy=0;endArrow=none;endFill=0;fillColor=#d5e8d4;strokeColor=#82b366;" parent="1" source="JXQCX-pXFuUWfHpVdgid-45" target="CsL8E8aFtRLFVdAylu72-14" edge="1">
          <mxGeometry relative="1" as="geometry" />
        </mxCell>
        <mxCell id="JXQCX-pXFuUWfHpVdgid-45" value="Id-Taller" style="ellipse;whiteSpace=wrap;html=1;align=center;fontStyle=4;fillColor=#d5e8d4;strokeColor=#82b366;" parent="1" vertex="1">
          <mxGeometry x="1055" y="658.75" width="65" height="20" as="geometry" />
        </mxCell>
        <mxCell id="JXQCX-pXFuUWfHpVdgid-49" style="rounded=0;orthogonalLoop=1;jettySize=auto;html=1;entryX=1;entryY=1;entryDx=0;entryDy=0;endArrow=none;endFill=0;fillColor=#d5e8d4;strokeColor=#82b366;" parent="1" source="JXQCX-pXFuUWfHpVdgid-46" target="CsL8E8aFtRLFVdAylu72-14" edge="1">
          <mxGeometry relative="1" as="geometry" />
        </mxCell>
        <mxCell id="JXQCX-pXFuUWfHpVdgid-46" value="Nombre" style="ellipse;whiteSpace=wrap;html=1;align=center;fillColor=#d5e8d4;strokeColor=#82b366;" parent="1" vertex="1">
          <mxGeometry x="1055" y="678.75" width="50" height="20" as="geometry" />
        </mxCell>
        <mxCell id="JXQCX-pXFuUWfHpVdgid-50" style="rounded=0;orthogonalLoop=1;jettySize=auto;html=1;entryX=1;entryY=1;entryDx=0;entryDy=0;endArrow=none;endFill=0;fillColor=#d5e8d4;strokeColor=#82b366;" parent="1" source="JXQCX-pXFuUWfHpVdgid-47" target="CsL8E8aFtRLFVdAylu72-14" edge="1">
          <mxGeometry relative="1" as="geometry" />
        </mxCell>
        <mxCell id="JXQCX-pXFuUWfHpVdgid-47" value="Direccion" style="ellipse;whiteSpace=wrap;html=1;align=center;fillColor=#d5e8d4;strokeColor=#82b366;" parent="1" vertex="1">
          <mxGeometry x="1020" y="698.75" width="60" height="23.75" as="geometry" />
        </mxCell>
        <mxCell id="JXQCX-pXFuUWfHpVdgid-60" style="rounded=0;orthogonalLoop=1;jettySize=auto;html=1;entryX=1;entryY=1;entryDx=0;entryDy=0;endArrow=none;endFill=0;fillColor=#d5e8d4;strokeColor=#82b366;" parent="1" source="JXQCX-pXFuUWfHpVdgid-51" target="CsL8E8aFtRLFVdAylu72-13" edge="1">
          <mxGeometry relative="1" as="geometry" />
        </mxCell>
        <mxCell id="JXQCX-pXFuUWfHpVdgid-51" value="Id-Proveedor" style="ellipse;whiteSpace=wrap;html=1;align=center;fontStyle=4;fillColor=#d5e8d4;strokeColor=#82b366;" parent="1" vertex="1">
          <mxGeometry x="830" y="460" width="83.13" height="19.5" as="geometry" />
        </mxCell>
        <mxCell id="JXQCX-pXFuUWfHpVdgid-59" style="rounded=0;orthogonalLoop=1;jettySize=auto;html=1;entryX=1;entryY=1;entryDx=0;entryDy=0;endArrow=none;endFill=0;fillColor=#d5e8d4;strokeColor=#82b366;" parent="1" source="JXQCX-pXFuUWfHpVdgid-52" target="CsL8E8aFtRLFVdAylu72-13" edge="1">
          <mxGeometry relative="1" as="geometry" />
        </mxCell>
        <mxCell id="JXQCX-pXFuUWfHpVdgid-52" value="Nombre" style="ellipse;whiteSpace=wrap;html=1;align=center;fillColor=#d5e8d4;strokeColor=#82b366;" parent="1" vertex="1">
          <mxGeometry x="853.13" y="479.5" width="50" height="20" as="geometry" />
        </mxCell>
        <mxCell id="JXQCX-pXFuUWfHpVdgid-58" style="rounded=0;orthogonalLoop=1;jettySize=auto;html=1;entryX=1;entryY=1;entryDx=0;entryDy=0;endArrow=none;endFill=0;fillColor=#d5e8d4;strokeColor=#82b366;" parent="1" source="JXQCX-pXFuUWfHpVdgid-53" target="CsL8E8aFtRLFVdAylu72-13" edge="1">
          <mxGeometry relative="1" as="geometry" />
        </mxCell>
        <mxCell id="JXQCX-pXFuUWfHpVdgid-53" value="Telefono" style="ellipse;whiteSpace=wrap;html=1;align=center;fillColor=#d5e8d4;strokeColor=#82b366;" parent="1" vertex="1">
          <mxGeometry x="843.13" y="499.5" width="56.87" height="20" as="geometry" />
        </mxCell>
        <mxCell id="JXQCX-pXFuUWfHpVdgid-57" style="rounded=0;orthogonalLoop=1;jettySize=auto;html=1;entryX=1;entryY=1;entryDx=0;entryDy=0;endArrow=none;endFill=0;fillColor=#d5e8d4;strokeColor=#82b366;" parent="1" source="JXQCX-pXFuUWfHpVdgid-54" target="CsL8E8aFtRLFVdAylu72-13" edge="1">
          <mxGeometry relative="1" as="geometry" />
        </mxCell>
        <mxCell id="JXQCX-pXFuUWfHpVdgid-54" value="Email" style="ellipse;whiteSpace=wrap;html=1;align=center;fillColor=#d5e8d4;strokeColor=#82b366;" parent="1" vertex="1">
          <mxGeometry x="833.13" y="519.5" width="36.87" height="20" as="geometry" />
        </mxCell>
        <mxCell id="JXQCX-pXFuUWfHpVdgid-56" style="rounded=0;orthogonalLoop=1;jettySize=auto;html=1;entryX=1;entryY=1;entryDx=0;entryDy=0;endArrow=none;endFill=0;fillColor=#d5e8d4;strokeColor=#82b366;" parent="1" source="JXQCX-pXFuUWfHpVdgid-55" target="CsL8E8aFtRLFVdAylu72-13" edge="1">
          <mxGeometry relative="1" as="geometry" />
        </mxCell>
        <mxCell id="JXQCX-pXFuUWfHpVdgid-55" value="Direccion" style="ellipse;whiteSpace=wrap;html=1;align=center;fillColor=#d5e8d4;strokeColor=#82b366;" parent="1" vertex="1">
          <mxGeometry x="805" y="537" width="53.12" height="20" as="geometry" />
        </mxCell>
        <mxCell id="JXQCX-pXFuUWfHpVdgid-75" style="rounded=0;orthogonalLoop=1;jettySize=auto;html=1;endArrow=none;endFill=0;fillColor=#d5e8d4;strokeColor=#82b366;" parent="1" source="JXQCX-pXFuUWfHpVdgid-62" edge="1">
          <mxGeometry relative="1" as="geometry">
            <mxPoint x="-120" y="320" as="targetPoint" />
          </mxGeometry>
        </mxCell>
        <mxCell id="JXQCX-pXFuUWfHpVdgid-62" value="Duracion" style="ellipse;whiteSpace=wrap;html=1;align=center;fillColor=#d5e8d4;strokeColor=#82b366;" parent="1" vertex="1">
          <mxGeometry x="-205" y="347.5" width="51.25" height="20" as="geometry" />
        </mxCell>
        <mxCell id="JXQCX-pXFuUWfHpVdgid-74" style="rounded=0;orthogonalLoop=1;jettySize=auto;html=1;entryX=0;entryY=0.5;entryDx=0;entryDy=0;endArrow=none;endFill=0;fillColor=#d5e8d4;strokeColor=#82b366;" parent="1" source="JXQCX-pXFuUWfHpVdgid-64" target="CsL8E8aFtRLFVdAylu72-12" edge="1">
          <mxGeometry relative="1" as="geometry">
            <mxPoint x="-207.5" y="258" as="targetPoint" />
          </mxGeometry>
        </mxCell>
        <mxCell id="JXQCX-pXFuUWfHpVdgid-64" value="Precio" style="ellipse;whiteSpace=wrap;html=1;align=center;fillColor=#d5e8d4;strokeColor=#82b366;" parent="1" vertex="1">
          <mxGeometry x="-227.5" y="327.5" width="47.5" height="20" as="geometry" />
        </mxCell>
        <mxCell id="JXQCX-pXFuUWfHpVdgid-73" style="rounded=0;orthogonalLoop=1;jettySize=auto;html=1;endArrow=none;endFill=0;fillColor=#d5e8d4;strokeColor=#82b366;" parent="1" source="JXQCX-pXFuUWfHpVdgid-66" edge="1">
          <mxGeometry relative="1" as="geometry">
            <mxPoint x="-120" y="320" as="targetPoint" />
          </mxGeometry>
        </mxCell>
        <mxCell id="JXQCX-pXFuUWfHpVdgid-66" value="Tipo" style="ellipse;whiteSpace=wrap;html=1;align=center;fillColor=#d5e8d4;strokeColor=#82b366;" parent="1" vertex="1">
          <mxGeometry x="-242.62" y="306.5" width="37.62" height="21" as="geometry" />
        </mxCell>
        <mxCell id="JXQCX-pXFuUWfHpVdgid-72" style="rounded=0;orthogonalLoop=1;jettySize=auto;html=1;entryX=0;entryY=0.5;entryDx=0;entryDy=0;endArrow=none;endFill=0;fillColor=#d5e8d4;strokeColor=#82b366;" parent="1" source="JXQCX-pXFuUWfHpVdgid-68" target="CsL8E8aFtRLFVdAylu72-12" edge="1">
          <mxGeometry relative="1" as="geometry">
            <mxPoint x="-207.5" y="258" as="targetPoint" />
          </mxGeometry>
        </mxCell>
        <mxCell id="JXQCX-pXFuUWfHpVdgid-68" value="Id-Servicio" style="ellipse;whiteSpace=wrap;html=1;align=center;fontStyle=4;fillColor=#d5e8d4;strokeColor=#82b366;" parent="1" vertex="1">
          <mxGeometry x="-260" y="287.5" width="62.5" height="19" as="geometry" />
        </mxCell>
        <mxCell id="JXQCX-pXFuUWfHpVdgid-79" style="rounded=0;orthogonalLoop=1;jettySize=auto;html=1;entryX=0.5;entryY=0;entryDx=0;entryDy=0;endArrow=none;endFill=0;fillColor=#d5e8d4;strokeColor=#82b366;" parent="1" source="JXQCX-pXFuUWfHpVdgid-76" target="CsL8E8aFtRLFVdAylu72-10" edge="1">
          <mxGeometry relative="1" as="geometry" />
        </mxCell>
        <mxCell id="JXQCX-pXFuUWfHpVdgid-76" value="Id-Producto" style="ellipse;whiteSpace=wrap;html=1;align=center;fontStyle=4;fillColor=#d5e8d4;strokeColor=#82b366;" parent="1" vertex="1">
          <mxGeometry x="45" y="-20" width="65" height="20" as="geometry" />
        </mxCell>
        <mxCell id="JXQCX-pXFuUWfHpVdgid-80" style="rounded=0;orthogonalLoop=1;jettySize=auto;html=1;entryX=0.5;entryY=0;entryDx=0;entryDy=0;endArrow=none;endFill=0;fillColor=#d5e8d4;strokeColor=#82b366;" parent="1" source="JXQCX-pXFuUWfHpVdgid-77" target="CsL8E8aFtRLFVdAylu72-10" edge="1">
          <mxGeometry relative="1" as="geometry" />
        </mxCell>
        <mxCell id="JXQCX-pXFuUWfHpVdgid-77" value="Nombre" style="ellipse;whiteSpace=wrap;html=1;align=center;fillColor=#d5e8d4;strokeColor=#82b366;" parent="1" vertex="1">
          <mxGeometry x="110" y="-7.5" width="50" height="20" as="geometry" />
        </mxCell>
        <mxCell id="JXQCX-pXFuUWfHpVdgid-81" style="rounded=0;orthogonalLoop=1;jettySize=auto;html=1;entryX=0.5;entryY=0;entryDx=0;entryDy=0;endArrow=none;endFill=0;fillColor=#d5e8d4;strokeColor=#82b366;" parent="1" source="JXQCX-pXFuUWfHpVdgid-78" target="CsL8E8aFtRLFVdAylu72-10" edge="1">
          <mxGeometry relative="1" as="geometry" />
        </mxCell>
        <mxCell id="JXQCX-pXFuUWfHpVdgid-78" value="Precio" style="ellipse;whiteSpace=wrap;html=1;align=center;fillColor=#d5e8d4;strokeColor=#82b366;" parent="1" vertex="1">
          <mxGeometry x="10" width="40" height="15" as="geometry" />
        </mxCell>
        <mxCell id="JXQCX-pXFuUWfHpVdgid-90" style="rounded=0;orthogonalLoop=1;jettySize=auto;html=1;entryX=0;entryY=1;entryDx=0;entryDy=0;endArrow=none;endFill=0;fillColor=#d5e8d4;strokeColor=#82b366;" parent="1" source="JXQCX-pXFuUWfHpVdgid-83" target="CsL8E8aFtRLFVdAylu72-19" edge="1">
          <mxGeometry relative="1" as="geometry" />
        </mxCell>
        <mxCell id="JXQCX-pXFuUWfHpVdgid-83" value="Duracion" style="ellipse;whiteSpace=wrap;html=1;align=center;fillColor=#d5e8d4;strokeColor=#82b366;" parent="1" vertex="1">
          <mxGeometry x="-183.12" y="540" width="51.25" height="20" as="geometry" />
        </mxCell>
        <mxCell id="JXQCX-pXFuUWfHpVdgid-89" style="rounded=0;orthogonalLoop=1;jettySize=auto;html=1;entryX=0;entryY=1;entryDx=0;entryDy=0;endArrow=none;endFill=0;fillColor=#d5e8d4;strokeColor=#82b366;" parent="1" source="JXQCX-pXFuUWfHpVdgid-84" target="CsL8E8aFtRLFVdAylu72-19" edge="1">
          <mxGeometry relative="1" as="geometry" />
        </mxCell>
        <mxCell id="JXQCX-pXFuUWfHpVdgid-84" value="Precio" style="ellipse;whiteSpace=wrap;html=1;align=center;fillColor=#d5e8d4;strokeColor=#82b366;" parent="1" vertex="1">
          <mxGeometry x="-205.62" y="520" width="47.5" height="20" as="geometry" />
        </mxCell>
        <mxCell id="JXQCX-pXFuUWfHpVdgid-88" style="rounded=0;orthogonalLoop=1;jettySize=auto;html=1;entryX=0;entryY=1;entryDx=0;entryDy=0;endArrow=none;endFill=0;fillColor=#d5e8d4;strokeColor=#82b366;" parent="1" source="JXQCX-pXFuUWfHpVdgid-85" target="CsL8E8aFtRLFVdAylu72-19" edge="1">
          <mxGeometry relative="1" as="geometry" />
        </mxCell>
        <mxCell id="JXQCX-pXFuUWfHpVdgid-85" value="Tipo" style="ellipse;whiteSpace=wrap;html=1;align=center;fillColor=#d5e8d4;strokeColor=#82b366;" parent="1" vertex="1">
          <mxGeometry x="-220.74" y="499" width="37.62" height="21" as="geometry" />
        </mxCell>
        <mxCell id="JXQCX-pXFuUWfHpVdgid-87" style="rounded=0;orthogonalLoop=1;jettySize=auto;html=1;entryX=0;entryY=1;entryDx=0;entryDy=0;endArrow=none;endFill=0;fillColor=#d5e8d4;strokeColor=#82b366;" parent="1" source="JXQCX-pXFuUWfHpVdgid-86" target="CsL8E8aFtRLFVdAylu72-19" edge="1">
          <mxGeometry relative="1" as="geometry" />
        </mxCell>
        <mxCell id="JXQCX-pXFuUWfHpVdgid-86" value="Id-Seguro" style="ellipse;whiteSpace=wrap;html=1;align=center;fontStyle=4;fillColor=#d5e8d4;strokeColor=#82b366;" parent="1" vertex="1">
          <mxGeometry x="-238.12" y="480" width="62.5" height="19" as="geometry" />
        </mxCell>
        <mxCell id="JXQCX-pXFuUWfHpVdgid-117" style="rounded=0;orthogonalLoop=1;jettySize=auto;html=1;entryX=0.5;entryY=0;entryDx=0;entryDy=0;endArrow=none;endFill=0;exitX=0.5;exitY=1;exitDx=0;exitDy=0;" parent="1" source="JXQCX-pXFuUWfHpVdgid-118" target="CsL8E8aFtRLFVdAylu72-43" edge="1">
          <mxGeometry relative="1" as="geometry">
            <mxPoint x="244.56029291246023" y="384.92826344755804" as="sourcePoint" />
          </mxGeometry>
        </mxCell>
        <mxCell id="JXQCX-pXFuUWfHpVdgid-115" style="rounded=0;orthogonalLoop=1;jettySize=auto;html=1;entryX=0.5;entryY=0;entryDx=0;entryDy=0;endArrow=none;endFill=0;" parent="1" source="JXQCX-pXFuUWfHpVdgid-114" target="CsL8E8aFtRLFVdAylu72-43" edge="1">
          <mxGeometry relative="1" as="geometry" />
        </mxCell>
        <mxCell id="JXQCX-pXFuUWfHpVdgid-114" value="Cantidad" style="ellipse;whiteSpace=wrap;html=1;align=center;fillColor=#f5f5f5;strokeColor=#666666;gradientColor=#b3b3b3;" parent="1" vertex="1">
          <mxGeometry x="155" y="400" width="60" height="23.75" as="geometry" />
        </mxCell>
        <mxCell id="JXQCX-pXFuUWfHpVdgid-118" value="Fecha_Compra" style="ellipse;whiteSpace=wrap;html=1;align=center;fillColor=#f5f5f5;strokeColor=#666666;gradientColor=#b3b3b3;direction=east;" parent="1" vertex="1">
          <mxGeometry x="185" y="377.5" width="100" height="15" as="geometry" />
        </mxCell>
        <mxCell id="Nn_GcHT7Je9zV0mcnBFL-37" style="edgeStyle=orthogonalEdgeStyle;rounded=0;orthogonalLoop=1;jettySize=auto;html=1;entryX=0;entryY=0.5;entryDx=0;entryDy=0;" edge="1" parent="1" source="JXQCX-pXFuUWfHpVdgid-119" target="Nn_GcHT7Je9zV0mcnBFL-27">
          <mxGeometry relative="1" as="geometry" />
        </mxCell>
        <mxCell id="JXQCX-pXFuUWfHpVdgid-119" value="Duracion" style="ellipse;whiteSpace=wrap;html=1;align=center;fillColor=#f5f5f5;strokeColor=#666666;gradientColor=#b3b3b3;direction=east;" parent="1" vertex="1">
          <mxGeometry x="-170" y="722.5" width="50" height="20" as="geometry" />
        </mxCell>
        <mxCell id="Nn_GcHT7Je9zV0mcnBFL-36" style="edgeStyle=orthogonalEdgeStyle;rounded=0;orthogonalLoop=1;jettySize=auto;html=1;entryX=0;entryY=0.5;entryDx=0;entryDy=0;" edge="1" parent="1" source="JXQCX-pXFuUWfHpVdgid-120" target="Nn_GcHT7Je9zV0mcnBFL-27">
          <mxGeometry relative="1" as="geometry" />
        </mxCell>
        <mxCell id="JXQCX-pXFuUWfHpVdgid-120" value="Precio_Alquiler" style="ellipse;whiteSpace=wrap;html=1;align=center;fillColor=#f5f5f5;strokeColor=#666666;gradientColor=#b3b3b3;" parent="1" vertex="1">
          <mxGeometry x="-150" y="746.25" width="90" height="23.75" as="geometry" />
        </mxCell>
        <mxCell id="Nn_GcHT7Je9zV0mcnBFL-35" style="edgeStyle=orthogonalEdgeStyle;rounded=0;orthogonalLoop=1;jettySize=auto;html=1;entryX=0.25;entryY=1;entryDx=0;entryDy=0;" edge="1" parent="1" source="JXQCX-pXFuUWfHpVdgid-121" target="Nn_GcHT7Je9zV0mcnBFL-27">
          <mxGeometry relative="1" as="geometry" />
        </mxCell>
        <mxCell id="JXQCX-pXFuUWfHpVdgid-121" value="Fecha_Inicio" style="ellipse;whiteSpace=wrap;html=1;align=center;fillColor=#f5f5f5;strokeColor=#666666;gradientColor=#b3b3b3;direction=east;" parent="1" vertex="1">
          <mxGeometry x="-60" y="765" width="90" height="15" as="geometry" />
        </mxCell>
        <mxCell id="JXQCX-pXFuUWfHpVdgid-135" style="rounded=0;orthogonalLoop=1;jettySize=auto;html=1;entryX=1;entryY=0;entryDx=0;entryDy=0;endArrow=none;endFill=0;" parent="1" source="JXQCX-pXFuUWfHpVdgid-132" target="CsL8E8aFtRLFVdAylu72-38" edge="1">
          <mxGeometry relative="1" as="geometry" />
        </mxCell>
        <mxCell id="JXQCX-pXFuUWfHpVdgid-132" value="Cantidad" style="ellipse;whiteSpace=wrap;html=1;align=center;fillColor=#f5f5f5;strokeColor=#666666;gradientColor=#b3b3b3;" parent="1" vertex="1">
          <mxGeometry x="670" y="395" width="60" height="23.75" as="geometry" />
        </mxCell>
        <mxCell id="JXQCX-pXFuUWfHpVdgid-134" style="rounded=0;orthogonalLoop=1;jettySize=auto;html=1;entryX=1;entryY=0;entryDx=0;entryDy=0;endArrow=none;endFill=0;" parent="1" source="JXQCX-pXFuUWfHpVdgid-133" target="CsL8E8aFtRLFVdAylu72-38" edge="1">
          <mxGeometry relative="1" as="geometry" />
        </mxCell>
        <mxCell id="JXQCX-pXFuUWfHpVdgid-133" value="Fecha_Entrega" style="ellipse;whiteSpace=wrap;html=1;align=center;fillColor=#f5f5f5;strokeColor=#666666;gradientColor=#b3b3b3;direction=east;" parent="1" vertex="1">
          <mxGeometry x="620" y="380" width="100" height="15" as="geometry" />
        </mxCell>
        <mxCell id="JXQCX-pXFuUWfHpVdgid-143" style="rounded=0;orthogonalLoop=1;jettySize=auto;html=1;entryX=0;entryY=0;entryDx=0;entryDy=0;endArrow=none;endFill=0;" parent="1" source="JXQCX-pXFuUWfHpVdgid-137" target="CsL8E8aFtRLFVdAylu72-40" edge="1">
          <mxGeometry relative="1" as="geometry" />
        </mxCell>
        <mxCell id="JXQCX-pXFuUWfHpVdgid-137" value="Duracion" style="ellipse;whiteSpace=wrap;html=1;align=center;fillColor=#f5f5f5;strokeColor=#666666;gradientColor=#b3b3b3;direction=east;" parent="1" vertex="1">
          <mxGeometry x="150" y="240" width="50" height="20" as="geometry" />
        </mxCell>
        <mxCell id="JXQCX-pXFuUWfHpVdgid-142" style="rounded=0;orthogonalLoop=1;jettySize=auto;html=1;entryX=0;entryY=0;entryDx=0;entryDy=0;endArrow=none;endFill=0;" parent="1" source="JXQCX-pXFuUWfHpVdgid-141" target="CsL8E8aFtRLFVdAylu72-40" edge="1">
          <mxGeometry relative="1" as="geometry" />
        </mxCell>
        <mxCell id="JXQCX-pXFuUWfHpVdgid-141" value="Contrato" style="ellipse;whiteSpace=wrap;html=1;align=center;fillColor=#f5f5f5;strokeColor=#666666;gradientColor=#b3b3b3;direction=east;" parent="1" vertex="1">
          <mxGeometry x="190" y="229" width="50" height="20" as="geometry" />
        </mxCell>
        <mxCell id="JXQCX-pXFuUWfHpVdgid-150" style="rounded=0;orthogonalLoop=1;jettySize=auto;html=1;entryX=0;entryY=1;entryDx=0;entryDy=0;endArrow=none;endFill=0;" parent="1" source="JXQCX-pXFuUWfHpVdgid-149" target="CsL8E8aFtRLFVdAylu72-42" edge="1">
          <mxGeometry relative="1" as="geometry" />
        </mxCell>
        <mxCell id="JXQCX-pXFuUWfHpVdgid-149" value="Fecha_Realizacion" style="ellipse;whiteSpace=wrap;html=1;align=center;fillColor=#f5f5f5;strokeColor=#666666;gradientColor=#b3b3b3;direction=east;" parent="1" vertex="1">
          <mxGeometry x="-40.62" y="400" width="115" height="25" as="geometry" />
        </mxCell>
        <mxCell id="JXQCX-pXFuUWfHpVdgid-152" style="rounded=0;orthogonalLoop=1;jettySize=auto;html=1;entryX=1;entryY=0;entryDx=0;entryDy=0;endArrow=none;endFill=0;" parent="1" source="JXQCX-pXFuUWfHpVdgid-151" target="CsL8E8aFtRLFVdAylu72-42" edge="1">
          <mxGeometry relative="1" as="geometry" />
        </mxCell>
        <mxCell id="JXQCX-pXFuUWfHpVdgid-151" value="Costo_Servicio" style="ellipse;whiteSpace=wrap;html=1;align=center;fillColor=#f5f5f5;strokeColor=#666666;gradientColor=#b3b3b3;direction=east;" parent="1" vertex="1">
          <mxGeometry x="150" y="327.5" width="90" height="20" as="geometry" />
        </mxCell>
        <mxCell id="JXQCX-pXFuUWfHpVdgid-157" style="rounded=0;orthogonalLoop=1;jettySize=auto;html=1;entryX=1;entryY=0.5;entryDx=0;entryDy=0;endArrow=none;endFill=0;" parent="1" source="JXQCX-pXFuUWfHpVdgid-153" target="CsL8E8aFtRLFVdAylu72-33" edge="1">
          <mxGeometry relative="1" as="geometry" />
        </mxCell>
        <mxCell id="JXQCX-pXFuUWfHpVdgid-153" value="Precio" style="ellipse;whiteSpace=wrap;html=1;align=center;fillColor=#f5f5f5;strokeColor=#666666;gradientColor=#b3b3b3;direction=east;" parent="1" vertex="1">
          <mxGeometry x="1035" y="785" width="50" height="20" as="geometry" />
        </mxCell>
        <mxCell id="JXQCX-pXFuUWfHpVdgid-156" style="rounded=0;orthogonalLoop=1;jettySize=auto;html=1;entryX=1;entryY=0.5;entryDx=0;entryDy=0;endArrow=none;endFill=0;" parent="1" source="JXQCX-pXFuUWfHpVdgid-155" target="CsL8E8aFtRLFVdAylu72-33" edge="1">
          <mxGeometry relative="1" as="geometry" />
        </mxCell>
        <mxCell id="JXQCX-pXFuUWfHpVdgid-155" value="Fecha_Mantenimiento" style="ellipse;whiteSpace=wrap;html=1;align=center;fillColor=#f5f5f5;strokeColor=#666666;gradientColor=#b3b3b3;direction=east;" parent="1" vertex="1">
          <mxGeometry x="1040" y="760" width="130" height="25" as="geometry" />
        </mxCell>
        <mxCell id="Nn_GcHT7Je9zV0mcnBFL-2" style="rounded=0;orthogonalLoop=1;jettySize=auto;html=1;entryX=1;entryY=1;entryDx=0;entryDy=0;endArrow=none;endFill=0;fillColor=#d5e8d4;strokeColor=#82b366;" edge="1" parent="1" source="Nn_GcHT7Je9zV0mcnBFL-1" target="CsL8E8aFtRLFVdAylu72-15">
          <mxGeometry relative="1" as="geometry" />
        </mxCell>
        <mxCell id="Nn_GcHT7Je9zV0mcnBFL-1" value="Telefono" style="ellipse;whiteSpace=wrap;html=1;align=center;fillColor=#d5e8d4;strokeColor=#82b366;" vertex="1" parent="1">
          <mxGeometry x="502.5" y="350" width="45" height="25" as="geometry" />
        </mxCell>
        <mxCell id="Nn_GcHT7Je9zV0mcnBFL-13" style="rounded=0;orthogonalLoop=1;jettySize=auto;html=1;entryX=0.75;entryY=1;entryDx=0;entryDy=0;endArrow=none;endFill=0;" edge="1" parent="1" source="Nn_GcHT7Je9zV0mcnBFL-5" target="CsL8E8aFtRLFVdAylu72-22">
          <mxGeometry relative="1" as="geometry" />
        </mxCell>
        <mxCell id="Nn_GcHT7Je9zV0mcnBFL-5" value="Matricula" style="ellipse;whiteSpace=wrap;html=1;align=center;fillColor=#d5e8d4;strokeColor=#82b366;" vertex="1" parent="1">
          <mxGeometry x="500" y="658.75" width="50" height="25" as="geometry" />
        </mxCell>
        <mxCell id="Nn_GcHT7Je9zV0mcnBFL-9" style="rounded=0;orthogonalLoop=1;jettySize=auto;html=1;entryX=1;entryY=1;entryDx=0;entryDy=0;fillColor=#f5f5f5;gradientColor=#b3b3b3;strokeColor=#666666;endArrow=none;endFill=0;" edge="1" parent="1" source="Nn_GcHT7Je9zV0mcnBFL-8" target="CsL8E8aFtRLFVdAylu72-37">
          <mxGeometry relative="1" as="geometry" />
        </mxCell>
        <mxCell id="Nn_GcHT7Je9zV0mcnBFL-8" value="Fecha_Compra" style="ellipse;whiteSpace=wrap;html=1;align=center;fillColor=#f5f5f5;strokeColor=#666666;gradientColor=#b3b3b3;direction=east;" vertex="1" parent="1">
          <mxGeometry x="440" y="400" width="100" height="15" as="geometry" />
        </mxCell>
        <mxCell id="Nn_GcHT7Je9zV0mcnBFL-15" style="rounded=0;orthogonalLoop=1;jettySize=auto;html=1;entryX=1;entryY=1;entryDx=0;entryDy=0;fillColor=#d5e8d4;gradientColor=#97d077;strokeColor=#82b366;endArrow=none;endFill=0;" edge="1" parent="1" source="Nn_GcHT7Je9zV0mcnBFL-14" target="CsL8E8aFtRLFVdAylu72-23">
          <mxGeometry relative="1" as="geometry" />
        </mxCell>
        <mxCell id="Nn_GcHT7Je9zV0mcnBFL-14" value="Matricula" style="ellipse;whiteSpace=wrap;html=1;align=center;fillColor=#d5e8d4;strokeColor=#82b366;" vertex="1" parent="1">
          <mxGeometry x="370" y="658.75" width="50" height="25" as="geometry" />
        </mxCell>
        <mxCell id="Nn_GcHT7Je9zV0mcnBFL-16" value="1:N:M" style="text;html=1;align=center;verticalAlign=middle;resizable=0;points=[];autosize=1;strokeColor=none;fillColor=none;" vertex="1" parent="1">
          <mxGeometry x="420" y="362.5" width="60" height="30" as="geometry" />
        </mxCell>
        <mxCell id="Nn_GcHT7Je9zV0mcnBFL-17" value="(1,n)" style="text;html=1;align=center;verticalAlign=middle;resizable=0;points=[];autosize=1;strokeColor=none;fillColor=none;" vertex="1" parent="1">
          <mxGeometry x="270" y="485" width="50" height="30" as="geometry" />
        </mxCell>
        <mxCell id="Nn_GcHT7Je9zV0mcnBFL-18" value="Coche&lt;div&gt;Nuevo&lt;/div&gt;" style="whiteSpace=wrap;html=1;align=center;fillColor=#dae8fc;strokeColor=#6c8ebf;" vertex="1" parent="1">
          <mxGeometry x="560" y="598" width="100" height="40" as="geometry" />
        </mxCell>
        <mxCell id="Nn_GcHT7Je9zV0mcnBFL-20" style="edgeStyle=orthogonalEdgeStyle;rounded=0;orthogonalLoop=1;jettySize=auto;html=1;" edge="1" parent="1" source="CsL8E8aFtRLFVdAylu72-1" target="Nn_GcHT7Je9zV0mcnBFL-18">
          <mxGeometry relative="1" as="geometry" />
        </mxCell>
        <mxCell id="CsL8E8aFtRLFVdAylu72-7" value="" style="group" parent="1" vertex="1" connectable="0">
          <mxGeometry x="360" y="517" width="40" height="66.25" as="geometry" />
        </mxCell>
        <mxCell id="CsL8E8aFtRLFVdAylu72-1" value="" style="triangle;whiteSpace=wrap;html=1;rotation=90;fillColor=#e1d5e7;strokeColor=#9673a6;" parent="CsL8E8aFtRLFVdAylu72-7" vertex="1">
          <mxGeometry x="3.75" y="30" width="32.5" height="40" as="geometry" />
        </mxCell>
        <mxCell id="CsL8E8aFtRLFVdAylu72-6" style="edgeStyle=orthogonalEdgeStyle;rounded=0;orthogonalLoop=1;jettySize=auto;html=1;entryX=0;entryY=0.5;entryDx=0;entryDy=0;endArrow=none;endFill=0;" parent="CsL8E8aFtRLFVdAylu72-7" source="CsL8E8aFtRLFVdAylu72-3" target="CsL8E8aFtRLFVdAylu72-1" edge="1">
          <mxGeometry relative="1" as="geometry">
            <Array as="points">
              <mxPoint x="20" />
              <mxPoint x="20" />
            </Array>
          </mxGeometry>
        </mxCell>
        <mxCell id="CsL8E8aFtRLFVdAylu72-3" value="" style="ellipse;whiteSpace=wrap;html=1;aspect=fixed;fillColor=#e1d5e7;strokeColor=#9673a6;" parent="CsL8E8aFtRLFVdAylu72-7" vertex="1">
          <mxGeometry x="5" width="30" height="30" as="geometry" />
        </mxCell>
        <mxCell id="Nn_GcHT7Je9zV0mcnBFL-21" value="(0,1) o (1,1)" style="text;html=1;align=center;verticalAlign=middle;resizable=0;points=[];autosize=1;strokeColor=none;fillColor=none;" vertex="1" parent="1">
          <mxGeometry x="530" y="570" width="90" height="30" as="geometry" />
        </mxCell>
        <mxCell id="Nn_GcHT7Je9zV0mcnBFL-22" value="(0,1) o (1,1)" style="text;html=1;align=center;verticalAlign=middle;resizable=0;points=[];autosize=1;strokeColor=none;fillColor=none;" vertex="1" parent="1">
          <mxGeometry x="230" y="570" width="90" height="30" as="geometry" />
        </mxCell>
        <mxCell id="Nn_GcHT7Je9zV0mcnBFL-25" value="(1,n)" style="text;html=1;align=center;verticalAlign=middle;resizable=0;points=[];autosize=1;strokeColor=none;fillColor=none;" vertex="1" parent="1">
          <mxGeometry x="155" y="85" width="50" height="30" as="geometry" />
        </mxCell>
        <mxCell id="Nn_GcHT7Je9zV0mcnBFL-27" value="Reserva" style="whiteSpace=wrap;html=1;align=center;fillColor=#dae8fc;strokeColor=#6c8ebf;" vertex="1" parent="1">
          <mxGeometry x="40" y="708" width="100" height="40" as="geometry" />
        </mxCell>
        <mxCell id="Nn_GcHT7Je9zV0mcnBFL-30" style="edgeStyle=orthogonalEdgeStyle;rounded=0;orthogonalLoop=1;jettySize=auto;html=1;entryX=1;entryY=0.5;entryDx=0;entryDy=0;" edge="1" parent="1" source="Nn_GcHT7Je9zV0mcnBFL-29" target="Nn_GcHT7Je9zV0mcnBFL-27">
          <mxGeometry relative="1" as="geometry" />
        </mxCell>
        <mxCell id="Nn_GcHT7Je9zV0mcnBFL-31" style="edgeStyle=orthogonalEdgeStyle;rounded=0;orthogonalLoop=1;jettySize=auto;html=1;" edge="1" parent="1" source="Nn_GcHT7Je9zV0mcnBFL-29" target="CsL8E8aFtRLFVdAylu72-23">
          <mxGeometry relative="1" as="geometry" />
        </mxCell>
        <mxCell id="Nn_GcHT7Je9zV0mcnBFL-29" value="Esta asociada" style="shape=rhombus;perimeter=rhombusPerimeter;whiteSpace=wrap;html=1;align=center;fillColor=#ffe6cc;strokeColor=#d79b00;" vertex="1" parent="1">
          <mxGeometry x="265" y="708" width="90" height="40" as="geometry" />
        </mxCell>
        <mxCell id="Nn_GcHT7Je9zV0mcnBFL-32" value="(1,n)" style="text;html=1;align=center;verticalAlign=middle;resizable=0;points=[];autosize=1;strokeColor=none;fillColor=none;" vertex="1" parent="1">
          <mxGeometry x="85" y="680" width="50" height="30" as="geometry" />
        </mxCell>
        <mxCell id="Nn_GcHT7Je9zV0mcnBFL-38" value="(1,n)" style="text;html=1;align=center;verticalAlign=middle;resizable=0;points=[];autosize=1;strokeColor=none;fillColor=none;" vertex="1" parent="1">
          <mxGeometry x="135" y="698" width="50" height="30" as="geometry" />
        </mxCell>
        <mxCell id="Nn_GcHT7Je9zV0mcnBFL-39" value="(1,n)" style="text;html=1;align=center;verticalAlign=middle;resizable=0;points=[];autosize=1;strokeColor=none;fillColor=none;" vertex="1" parent="1">
          <mxGeometry x="255" y="640" width="50" height="30" as="geometry" />
        </mxCell>
        <mxCell id="Nn_GcHT7Je9zV0mcnBFL-40" value="N:M" style="text;html=1;align=center;verticalAlign=middle;resizable=0;points=[];autosize=1;strokeColor=none;fillColor=none;" vertex="1" parent="1">
          <mxGeometry x="285" y="758" width="50" height="30" as="geometry" />
        </mxCell>
        <mxCell id="Nn_GcHT7Je9zV0mcnBFL-42" style="edgeStyle=orthogonalEdgeStyle;rounded=0;orthogonalLoop=1;jettySize=auto;html=1;entryX=0.5;entryY=1;entryDx=0;entryDy=0;" edge="1" parent="1" source="Nn_GcHT7Je9zV0mcnBFL-41" target="CsL8E8aFtRLFVdAylu72-19">
          <mxGeometry relative="1" as="geometry" />
        </mxCell>
        <mxCell id="Nn_GcHT7Je9zV0mcnBFL-43" style="edgeStyle=orthogonalEdgeStyle;rounded=0;orthogonalLoop=1;jettySize=auto;html=1;entryX=0.25;entryY=0;entryDx=0;entryDy=0;" edge="1" parent="1" source="Nn_GcHT7Je9zV0mcnBFL-41" target="Nn_GcHT7Je9zV0mcnBFL-27">
          <mxGeometry relative="1" as="geometry">
            <Array as="points">
              <mxPoint x="-70" y="650" />
              <mxPoint x="65" y="650" />
            </Array>
          </mxGeometry>
        </mxCell>
        <mxCell id="Nn_GcHT7Je9zV0mcnBFL-41" value="Contratar" style="shape=rhombus;perimeter=rhombusPerimeter;whiteSpace=wrap;html=1;align=center;" vertex="1" parent="1">
          <mxGeometry x="-117.49000000000001" y="598" width="95" height="35" as="geometry" />
        </mxCell>
        <mxCell id="Nn_GcHT7Je9zV0mcnBFL-44" value="(0,1)" style="text;html=1;align=center;verticalAlign=middle;resizable=0;points=[];autosize=1;strokeColor=none;fillColor=none;" vertex="1" parent="1">
          <mxGeometry x="-115" y="508" width="50" height="30" as="geometry" />
        </mxCell>
        <mxCell id="Nn_GcHT7Je9zV0mcnBFL-45" value="(1,n)" style="text;html=1;align=center;verticalAlign=middle;resizable=0;points=[];autosize=1;strokeColor=none;fillColor=none;" vertex="1" parent="1">
          <mxGeometry x="15" y="678" width="50" height="30" as="geometry" />
        </mxCell>
        <mxCell id="Nn_GcHT7Je9zV0mcnBFL-46" value="1:N" style="text;html=1;align=center;verticalAlign=middle;resizable=0;points=[];autosize=1;strokeColor=none;fillColor=none;" vertex="1" parent="1">
          <mxGeometry x="-155" y="600" width="40" height="30" as="geometry" />
        </mxCell>
        <mxCell id="Nn_GcHT7Je9zV0mcnBFL-48" value="(1,n)" style="text;html=1;align=center;verticalAlign=middle;resizable=0;points=[];autosize=1;strokeColor=none;fillColor=none;" vertex="1" parent="1">
          <mxGeometry x="775" y="718" width="50" height="30" as="geometry" />
        </mxCell>
      </root>
    </mxGraphModel>
  </diagram>
</mxfile>
